<?xml version="1.0" standalone="no"?>
<!DOCTYPE svg PUBLIC "-//W3C//DTD SVG 20010904//EN"
 "http://www.w3.org/TR/2001/REC-SVG-20010904/DTD/svg10.dtd">
<svg version="1.0" xmlns="http://www.w3.org/2000/svg"
 width="500.000000pt" height="500.000000pt" viewBox="0 0 500.000000 500.000000"
 preserveAspectRatio="xMidYMid meet">
<metadata>
Created by potrace 1.14, written by Peter Selinger 2001-2017
</metadata>
<g transform="translate(0.000000,500.000000) scale(0.100000,-0.100000)"
fill="#000000" stroke="none">
<path d="M2450 3438 c0 -9 5 -20 10 -23 13 -8 13 5 0 25 -8 13 -10 13 -10 -2z"/>
<path d="M2496 3434 c-8 -21 -8 -24 3 -24 12 0 22 28 12 35 -5 3 -12 -2 -15
-11z"/>
<path d="M1838 3407 c-38 -33 -54 -60 -68 -108 -13 -45 5 -34 24 14 21 53 43
80 85 101 35 18 77 12 105 -17 20 -20 56 -94 73 -151 9 -28 18 -45 20 -38 5
14 -19 96 -43 149 -39 86 -129 109 -196 50z"/>
<path d="M1444 3395 c-61 -28 -86 -55 -117 -125 -52 -117 -18 -270 67 -305 26
-11 40 -11 86 2 30 8 60 15 65 16 6 2 15 6 21 9 6 4 21 9 35 12 13 2 35 7 49
10 40 9 102 18 141 21 20 1 41 4 45 7 8 4 159 2 159 -2 0 0 23 -3 50 -5 86 -7
159 -15 185 -20 14 -3 34 -7 46 -9 53 -10 152 -66 189 -107 63 -69 87 -126 87
-212 0 -39 -5 -85 -12 -102 -6 -16 -11 -32 -11 -35 1 -20 -16 -61 -37 -90 -59
-79 -132 -130 -248 -169 -52 -18 -76 -20 -199 -16 -227 9 -320 20 -406 50 -22
8 -43 14 -47 13 -4 -1 -18 2 -32 5 -14 4 -36 9 -50 11 -50 8 -114 28 -149 47
-20 10 -43 19 -52 19 -22 0 -41 -24 -34 -43 7 -16 92 -60 190 -97 50 -19 75
-39 153 -119 51 -53 99 -108 107 -122 20 -37 82 -89 108 -91 12 0 27 -2 32 -3
25 -6 33 -7 75 -7 108 1 158 9 220 37 66 29 170 100 170 116 0 5 6 9 13 9 6 0
49 15 93 33 l81 33 -1 -165 c-2 -147 0 -167 16 -183 18 -18 47 -15 49 6 0 6 0
65 0 131 0 66 3 146 7 178 l7 59 60 24 c33 14 69 29 80 34 11 6 39 16 63 24
48 17 43 29 47 -99 3 -75 12 -165 20 -205 3 -14 6 -47 6 -73 2 -65 31 -95 59
-62 13 15 9 123 -6 185 -3 14 -7 72 -9 130 -2 58 -5 105 -5 105 -5 0 -7 55 -2
56 50 5 132 49 142 74 4 11 4 27 -1 36 -4 9 -6 19 -2 22 15 16 -32 17 -83 2
-31 -9 -58 -14 -60 -12 -3 3 -7 24 -10 48 -3 24 -9 60 -13 79 -5 19 -12 47
-15 62 -4 15 -20 43 -36 61 -28 32 -32 34 -77 27 -49 -8 -93 -44 -93 -77 0 -9
-3 -13 -7 -10 -3 4 -7 35 -8 70 -2 88 -36 156 -120 240 -48 48 -89 78 -139
102 -80 37 -100 42 -270 62 -75 9 -325 8 -386 -1 -25 -3 -57 -8 -73 -10 -15
-2 -66 -17 -115 -32 -48 -16 -93 -28 -99 -27 -7 0 -19 1 -26 2 -37 3 -59 119
-36 199 13 47 56 97 97 113 35 13 95 10 116 -6 23 -17 24 -16 -31 -39 -48 -21
-88 -61 -126 -127 -28 -48 -32 -59 -19 -59 4 0 18 20 31 45 25 48 41 58 41 25
0 -27 32 -42 64 -30 28 10 43 60 33 110 -5 22 -2 30 12 35 29 9 48 -4 65 -44
26 -65 64 -86 80 -45 7 18 -33 99 -70 143 -57 68 -146 86 -230 46z m131 -156
c7 -60 -41 -104 -65 -59 -15 28 -3 63 28 82 15 9 28 15 30 14 1 -2 5 -18 7
-37z m1216 -629 c15 -19 19 -46 21 -115 l3 -89 -73 -27 c-40 -15 -83 -30 -96
-33 l-24 -6 19 74 c33 129 86 230 116 224 9 -2 24 -14 34 -28z m238 -226 c-11
-13 -79 -48 -84 -42 -1 1 0 21 4 42 5 34 11 41 41 51 33 11 35 11 42 -13 4
-14 3 -31 -3 -38z m-94 18 c0 -9 -4 -22 -8 -29 -4 -6 -4 -18 -1 -26 4 -11 -9
-19 -53 -32 -32 -9 -113 -38 -181 -65 -67 -28 -129 -50 -137 -50 -18 0 -29 41
-20 70 6 19 33 35 75 45 8 2 56 18 105 36 80 28 200 66 216 68 3 1 5 -7 4 -17z
m-375 -31 c-5 -18 -7 -38 -4 -44 2 -7 -14 -20 -37 -29 -39 -16 -41 -16 -34 0
3 9 7 21 8 26 2 10 71 86 74 82 2 -1 -2 -17 -7 -35z m-97 -78 c-9 -16 -42 -41
-75 -58 -60 -30 -64 -37 -59 -101 2 -21 -59 -84 -80 -84 -6 0 -25 11 -43 25
-38 29 -107 55 -145 55 -15 0 -37 -7 -49 -16 -13 -9 -31 -13 -42 -9 -11 4 -35
8 -53 10 -18 3 -49 7 -69 10 -20 4 -63 1 -94 -5 l-56 -12 -55 54 c-30 29 -58
60 -63 69 -8 14 -5 15 23 10 25 -5 33 -14 41 -39 11 -40 29 -41 57 -2 17 22
26 27 38 20 9 -4 37 -11 61 -15 25 -4 48 -9 53 -12 16 -10 330 -1 376 10 54
14 169 63 206 89 22 15 41 28 42 28 1 0 -5 -12 -14 -27z m-776 -83 c-13 -21
-22 -18 -29 8 -4 15 -1 18 18 14 19 -3 21 -7 11 -22z m503 -143 c39 -31 40
-35 17 -49 -20 -13 -53 -29 -67 -32 -3 -1 -15 -7 -28 -14 -12 -7 -62 -15 -111
-18 -103 -6 -192 12 -219 44 -31 36 -47 58 -59 80 -12 20 -10 22 22 28 32 6
154 0 200 -10 11 -3 23 -5 27 -5 4 -1 23 -15 43 -32 43 -38 56 -34 20 6 -30
31 -30 29 10 42 23 8 41 6 80 -9 27 -11 57 -25 65 -31z"/>
<path d="M1530 3215 c0 -8 7 -15 15 -15 8 0 15 7 15 15 0 8 -7 15 -15 15 -8 0
-15 -7 -15 -15z"/>
<path d="M2406 3411 c-3 -5 1 -11 9 -15 8 -3 15 -1 15 4 0 13 -18 22 -24 11z"/>
<path d="M2446 3383 c-8 -21 17 -48 38 -40 9 4 16 18 16 32 0 20 -5 25 -24 25
-13 0 -27 -8 -30 -17z m35 -16 c-13 -13 -26 -3 -16 12 3 6 11 8 17 5 6 -4 6
-10 -1 -17z"/>
<path d="M1307 3362 c-10 -10 -23 -19 -30 -19 -59 -2 -254 -84 -259 -110 -2
-10 13 -58 34 -108 21 -49 38 -97 38 -105 0 -9 -27 -29 -66 -48 -36 -18 -71
-37 -77 -43 -7 -5 -40 -30 -74 -54 l-62 -45 41 -67 c22 -38 58 -89 79 -114
l38 -46 -49 -32 c-68 -44 -160 -120 -160 -132 0 -11 41 -58 123 -141 41 -41
57 -66 57 -85 0 -53 10 -15 15 58 6 80 13 145 20 169 3 8 7 31 9 50 4 29 43
189 61 250 2 8 13 47 24 85 37 132 50 165 123 315 30 63 74 139 97 169 36 48
48 71 38 71 -2 0 -11 -8 -20 -18z"/>
<path d="M1850 3330 c0 -5 5 -9 12 -7 7 1 13 -10 14 -28 2 -74 27 -96 70 -63
22 18 30 19 46 9 32 -20 30 -7 -5 26 -53 51 -137 89 -137 63z"/>
<path d="M2235 3294 c-8 -9 -15 -23 -15 -32 0 -13 4 -11 20 6 19 20 23 21 48
8 31 -16 62 -6 62 20 0 11 -4 12 -19 3 -13 -9 -26 -9 -49 -1 -26 9 -35 8 -47
-4z"/>
<path d="M3491 3001 c-7 -5 -21 -7 -30 -4 -29 7 -42 -19 -27 -49 12 -23 12
-27 -1 -32 -9 -4 -17 1 -20 13 -5 22 -29 35 -38 22 -3 -5 2 -11 10 -15 25 -9
17 -23 -12 -19 -25 3 -26 2 -7 -6 12 -5 24 -17 28 -26 3 -9 11 -13 16 -10 6 4
17 2 24 -4 18 -15 58 -20 79 -9 19 10 24 68 6 68 -8 0 -8 4 1 14 13 17 10 58
-5 63 -5 1 -16 -1 -24 -6z m-21 -43 c0 -17 -3 -18 -14 -8 -8 6 -12 18 -9 26 7
19 23 7 23 -18z m38 3 c-7 -12 -16 -21 -20 -21 -10 0 3 33 16 42 17 11 18 2 4
-21z m8 -52 c3 -6 2 -15 -4 -21 -6 -6 -11 -2 -15 11 -5 22 7 29 19 10z m-54
-31 c-9 -9 -12 -7 -12 12 0 19 3 21 12 12 9 -9 9 -15 0 -24z"/>
<path d="M3585 2889 c-4 -5 9 -9 27 -10 18 0 41 -2 51 -4 25 -5 96 -43 132
-71 16 -13 40 -32 53 -41 52 -41 68 -142 33 -210 -24 -48 -144 -140 -208 -159
-51 -15 -181 -26 -187 -15 -7 10 37 84 52 89 7 2 12 0 11 -5 -1 -4 2 -23 6
-40 6 -28 12 -33 36 -33 25 0 28 3 27 33 -1 58 -27 106 -62 115 -46 13 -73 -4
-110 -70 l-33 -58 -26 20 c-34 27 -35 7 -2 -22 19 -16 24 -29 20 -48 -3 -14
-7 -43 -10 -65 -3 -22 -8 -51 -11 -65 -2 -14 -6 -35 -9 -47 -2 -13 -10 -32
-18 -44 l-15 -20 -16 23 c-9 12 -16 28 -16 34 0 20 -23 22 -54 7 -37 -19 -47
-7 -36 42 5 22 18 77 28 122 11 45 19 112 18 150 -1 73 -9 82 -60 69 -24 -6
-137 -112 -129 -120 3 -3 25 5 49 17 24 11 46 18 50 14 12 -12 -15 -151 -47
-248 -37 -109 -46 -213 -21 -241 21 -25 68 -23 90 4 9 11 26 30 36 41 l20 21
14 -35 c32 -78 62 -82 123 -15 33 35 40 52 59 143 12 56 19 107 16 112 -4 5
-2 12 3 16 6 3 8 12 4 20 -3 8 -3 26 1 39 5 21 12 23 101 29 75 5 108 12 148
33 28 14 54 29 57 33 3 4 21 18 40 31 42 29 60 46 60 56 0 4 7 15 16 25 19 21
26 120 11 163 -5 17 -17 39 -26 50 -23 27 -110 90 -159 115 -46 23 -128 35
-137 20z m-58 -389 c1 -11 -3 -20 -8 -20 -5 0 -19 -21 -31 -47 -13 -27 -24
-50 -25 -52 -1 -2 -9 2 -17 9 -14 11 -14 16 1 44 40 79 77 109 80 66z m-303
-180 c-34 -161 -24 -197 41 -154 14 9 25 15 26 13 0 -2 2 -12 4 -21 4 -21 23
-42 47 -51 13 -5 22 1 33 22 14 28 17 39 31 136 4 28 9 55 9 60 1 6 3 18 3 28
1 10 10 17 23 17 21 0 21 -3 15 -67 -10 -100 -14 -122 -31 -186 -8 -32 -15
-60 -15 -62 0 -3 -6 -5 -14 -5 -7 0 -19 -7 -26 -15 -19 -23 -44 -18 -67 13
-27 37 -45 36 -94 -6 -49 -42 -61 -33 -53 43 6 54 11 90 14 90 1 0 3 7 5 15 1
8 8 40 14 71 6 30 14 67 16 81 3 14 12 39 20 54 8 16 15 35 15 43 0 8 2 12 5
9 3 -3 -6 -60 -21 -128z"/>
<path d="M3261 2655 c-1 -24 15 -52 24 -43 4 3 0 19 -9 35 -13 23 -15 24 -15
8z"/>
<path d="M3300 2529 c0 -9 9 -27 20 -40 26 -32 27 -3 0 31 -15 19 -20 21 -20
9z"/>
<path d="M1220 2477 c-25 -6 -30 -12 -25 -25 4 -9 9 -39 12 -67 5 -51 9 -63
19 -52 3 3 2 31 -3 61 -6 30 -7 59 -4 63 6 8 61 16 114 17 15 1 27 4 27 9 0 9
-97 5 -140 -6z"/>
<path d="M3571 2210 c3 -124 6 -146 27 -191 13 -27 35 -57 48 -66 32 -21 106
-20 139 1 21 14 123 196 109 196 -7 0 27 52 55 83 18 20 21 27 10 27 -9 0 -47
-33 -85 -74 -84 -89 -126 -114 -161 -95 -36 19 -54 62 -59 137 -4 84 -13 122
-26 122 -6 0 -7 -8 -3 -17 3 -10 8 -49 11 -88 8 -117 30 -158 94 -178 23 -7
86 27 116 62 31 38 41 34 20 -6 -22 -43 -95 -113 -118 -113 -30 0 -76 37 -97
79 -21 40 -34 107 -36 186 -3 74 -3 75 -26 75 -20 0 -20 -4 -18 -140z"/>
</g>
</svg>
